<svg width="24" height="28" viewBox="0 0 24 28" fill="none" xmlns="http://www.w3.org/2000/svg">
<path d="M14.368 25.4923L14.3454 25.508L14.3237 25.5249C13.792 25.9394 13.169 26.2021 12.5179 26.2978C12.1478 26.3451 11.7928 26.3451 11.45 26.2983C10.7962 26.203 10.1726 25.9402 9.6422 25.5249L9.6185 25.5063L9.5938 25.4893C9.3076 25.2917 9.14211 25.0224 9.10421 24.7696C9.13141 24.7496 9.17671 24.7227 9.24511 24.694C9.31651 24.6641 9.401 24.6373 9.4948 24.6149C9.503 24.6135 9.52421 24.6102 9.56231 24.6058C9.61151 24.6001 9.67541 24.5941 9.75481 24.5881C9.91351 24.5762 10.1155 24.5658 10.3508 24.5572C10.8205 24.5402 11.3989 24.5315 11.9814 24.5315C12.564 24.5315 13.1424 24.5402 13.6121 24.5572C13.8473 24.5658 14.0494 24.5762 14.2081 24.5881C14.2874 24.5941 14.3514 24.6001 14.4005 24.6058C14.4387 24.6102 14.4599 24.6135 14.468 24.6149C14.5619 24.6373 14.6463 24.6641 14.7178 24.694C14.7862 24.7227 14.8314 24.7496 14.8587 24.7696C14.8208 25.0226 14.655 25.2929 14.368 25.4923ZM18.5577 4.7767L18.56 4.7796C19.5039 5.995 19.9426 7.179 19.9426 9.1604V9.7284C19.9426 10.6569 20.0658 11.4508 20.3535 12.1915C20.6403 12.9297 21.0683 13.5574 21.5996 14.1779L21.6088 14.1884C22.1204 14.7692 22.3332 15.5622 22.3332 16.608C22.3332 17.5415 22.0315 18.4081 21.4366 19.1126C20.601 20.0002 19.4221 20.5678 18.2338 20.666L18.2312 20.6663C16.142 20.8444 14.0804 20.9916 12.0005 20.9916C9.9029 20.9916 7.84691 20.9028 5.79821 20.6691L5.7827 20.6673L5.7672 20.666C4.5772 20.5678 3.3986 20 2.5647 19.1129C1.9691 18.4077 1.6665 17.5408 1.6665 16.608C1.6665 15.5636 1.8801 14.7699 2.3909 14.1885C2.9437 13.5624 3.3756 12.9303 3.6601 12.1868C3.9446 11.4432 4.0584 10.6493 4.0584 9.7284V9.1604C4.0584 7.1369 4.5455 5.8941 5.5463 4.6452C7.0613 2.795 9.51551 1.6667 11.9409 1.6667H12.0602C14.5432 1.6667 17.0758 2.8539 18.5577 4.7767Z" stroke="white" stroke-width="2"/>
<path d="M19.3335 8.6667C21.5426 8.6667 23.3335 6.87584 23.3335 4.6667C23.3335 2.45756 21.5426 0.666702 19.3335 0.666702C17.1244 0.666702 15.3335 2.45756 15.3335 4.6667C15.3335 6.87584 17.1244 8.6667 19.3335 8.6667Z" fill="#D175B6"/>
</svg>
